<svg width="3164" height="488" viewBox="0 0 3164 488" fill="none" xmlns="http://www.w3.org/2000/svg">
<circle cx="395.856" cy="199.186" r="198.069" fill="url(#paint0_linear_145_7112)" fill-opacity="0.9"/>
<path d="M593.925 486.998H480C421 488.498 374.5 438.498 367 392.998C376.5 377.498 412.5 312.498 388 231.998C370.5 188.998 369.5 160.998 396 0.998047C514 0.998047 596 100.998 593.925 201.998V486.998Z" fill="url(#paint1_linear_145_7112)" fill-opacity="0.75"/>
<circle cx="198.069" cy="289.278" r="198.069" transform="rotate(-180 198.069 289.278)" fill="url(#paint2_linear_145_7112)" fill-opacity="0.9"/>
<path d="M0.0384988 1.03293H113.964C172.964 -0.466692 219.464 49.5335 226.964 95.0332C217.464 110.533 181.464 175.533 205.964 256.033C223.464 299.033 224.464 327.033 197.964 487.033C79.9635 487.033 -2.03638 387.033 0.0384988 286.033V1.03293Z" fill="url(#paint3_linear_145_7112)" fill-opacity="0.75"/>
<g opacity="0.5">
<circle cx="395.856" cy="199.186" r="198.069" fill="url(#paint4_linear_145_7112)" fill-opacity="0.9"/>
<path d="M593.925 486.998H480C421 488.498 374.5 438.498 367 392.998C376.5 377.498 412.5 312.498 388 231.998C370.5 188.998 369.5 160.998 396 0.998047C514 0.998047 596 100.998 593.925 201.998V486.998Z" fill="url(#paint5_linear_145_7112)" fill-opacity="0.75"/>
<circle cx="198.069" cy="289.278" r="198.069" transform="rotate(-180 198.069 289.278)" fill="url(#paint6_linear_145_7112)" fill-opacity="0.9"/>
<path d="M0.0384988 1.03293H113.964C172.964 -0.466692 219.464 49.5335 226.964 95.0332C217.464 110.533 181.464 175.533 205.964 256.033C223.464 299.033 224.464 327.033 197.964 487.033C79.9635 487.033 -2.03638 387.033 0.0384988 286.033V1.03293Z" fill="url(#paint7_linear_145_7112)" fill-opacity="0.75"/>
</g>
<path d="M922.728 171.052C953.502 171.052 978.808 181.225 998.646 201.572C1018.74 221.918 1028.78 247.606 1028.78 278.635C1028.78 309.409 1018.74 335.097 998.646 355.698C978.808 376.045 953.502 386.218 922.728 386.218C890.427 386.218 863.977 374.9 843.376 352.265L839.179 381.64H814V102H846.428V201.572C866.52 181.225 891.953 171.052 922.728 171.052ZM920.057 354.935C934.554 354.935 947.525 351.629 958.97 345.016C970.415 338.403 979.317 329.374 985.675 317.929C992.288 306.23 995.594 293.132 995.594 278.635C995.594 256.762 988.473 238.577 974.23 224.08C959.988 209.583 941.93 202.335 920.057 202.335C898.439 202.335 880.381 209.71 865.884 224.462C851.387 238.959 844.139 257.017 844.139 278.635C844.139 287.028 845.283 295.167 847.572 303.051C850.115 310.935 853.676 318.057 858.254 324.415C862.832 330.519 868.173 335.86 874.277 340.438C880.635 345.016 887.63 348.577 895.26 351.12C903.144 353.663 911.41 354.935 920.057 354.935Z" fill="white"/>
<path d="M1177.72 174.485H1196.03V205.387H1175.05C1156.48 205.387 1141.98 211.109 1131.55 222.554C1121.38 233.745 1116.29 249.514 1116.29 269.86V381.64H1083.87V175.63H1106.76L1112.1 206.913C1127.1 185.294 1148.98 174.485 1177.72 174.485Z" fill="white"/>
<path d="M1423.08 279.398C1423.08 282.196 1422.82 286.138 1422.31 291.224H1246.44C1248.98 310.299 1256.87 325.687 1270.09 337.386C1283.32 348.831 1299.6 354.554 1318.93 354.554C1333.17 354.554 1345.76 351.502 1356.69 345.398C1367.88 339.039 1376.79 330.137 1383.4 318.692H1417.35C1408.71 340.056 1395.73 356.715 1378.44 368.669C1361.14 380.368 1341.31 386.218 1318.93 386.218C1289.17 386.218 1264.24 375.918 1244.15 355.317C1224.06 334.715 1214.01 309.155 1214.01 278.635C1214.01 247.86 1224.06 222.3 1244.15 201.953C1264.24 181.352 1289.17 171.052 1318.93 171.052C1349.7 171.052 1374.75 181.479 1394.08 202.335C1413.41 223.19 1423.08 248.878 1423.08 279.398ZM1318.93 201.953C1306.72 201.953 1295.53 204.369 1285.35 209.202C1275.43 214.034 1267.17 221.028 1260.56 230.184C1253.94 239.086 1249.49 249.386 1247.2 261.086H1390.27C1387.98 249.132 1383.53 238.704 1376.91 229.803C1370.3 220.647 1362.03 213.78 1352.12 209.202C1342.2 204.369 1331.13 201.953 1318.93 201.953Z" fill="white"/>
<path d="M1652.68 175.63H1678.62V381.64H1651.53L1648.1 350.357C1638.43 361.802 1626.61 370.704 1612.62 377.062C1598.88 383.166 1583.75 386.218 1567.22 386.218C1536.95 386.218 1511.65 376.045 1491.3 355.698C1470.95 335.097 1460.78 309.409 1460.78 278.635C1460.78 247.86 1470.95 222.3 1491.3 201.953C1511.65 181.352 1536.95 171.052 1567.22 171.052C1584.01 171.052 1599.27 174.231 1613 180.589C1626.99 186.948 1638.81 195.849 1648.48 207.294L1652.68 175.63ZM1515.34 333.189C1529.83 347.687 1548.02 354.935 1569.89 354.935C1591.76 354.935 1609.82 347.687 1624.06 333.189C1638.31 318.692 1645.43 300.508 1645.43 278.635C1645.43 256.762 1638.31 238.577 1624.06 224.08C1609.82 209.583 1591.76 202.335 1569.89 202.335C1548.02 202.335 1529.83 209.71 1515.34 224.462C1501.09 238.959 1493.97 257.017 1493.97 278.635C1493.97 300.253 1501.09 318.438 1515.34 333.189Z" fill="white"/>
<path d="M1915.61 102H1948.04V381.64H1923.24L1918.67 352.265C1898.32 374.9 1872 386.218 1839.69 386.218C1808.67 386.218 1783.11 376.045 1763.01 355.698C1743.18 335.097 1733.26 309.409 1733.26 278.635C1733.26 247.606 1743.18 221.918 1763.01 201.572C1783.11 181.225 1808.67 171.052 1839.69 171.052C1870.21 171.052 1895.52 181.225 1915.61 201.572V102ZM1787.81 333.189C1802.05 347.687 1819.98 354.935 1841.6 354.935C1863.47 354.935 1881.66 347.687 1896.16 333.189C1910.65 318.438 1917.9 300.253 1917.9 278.635C1917.9 256.762 1910.65 238.577 1896.16 224.08C1881.91 209.583 1863.86 202.335 1841.98 202.335C1831.3 202.335 1821.26 204.369 1811.85 208.439C1802.43 212.254 1794.42 217.468 1787.81 224.08C1781.2 230.693 1775.98 238.832 1772.17 248.496C1768.35 257.907 1766.45 267.953 1766.45 278.635C1766.45 300.508 1773.57 318.692 1787.81 333.189Z" fill="white"/>
<path d="M2128.26 171.052C2159.03 171.052 2184.34 181.225 2204.17 201.572C2224.27 221.918 2234.31 247.606 2234.31 278.635C2234.31 309.409 2224.27 335.097 2204.17 355.698C2184.34 376.045 2159.03 386.218 2128.26 386.218C2095.95 386.218 2069.5 374.9 2048.9 352.265L2044.71 381.64H2019.53V102H2051.96V201.572C2072.05 181.225 2097.48 171.052 2128.26 171.052ZM2125.58 354.935C2140.08 354.935 2153.05 351.629 2164.5 345.016C2175.94 338.403 2184.84 329.374 2191.2 317.929C2197.82 306.23 2201.12 293.132 2201.12 278.635C2201.12 256.762 2194 238.577 2179.76 224.08C2165.52 209.583 2147.46 202.335 2125.58 202.335C2103.97 202.335 2085.91 209.71 2071.41 224.462C2056.91 238.959 2049.67 257.017 2049.67 278.635C2049.67 287.028 2050.81 295.167 2053.1 303.051C2055.64 310.935 2059.2 318.057 2063.78 324.415C2068.36 330.519 2073.7 335.86 2079.8 340.438C2086.16 345.016 2093.16 348.577 2100.79 351.12C2108.67 353.663 2116.94 354.935 2125.58 354.935Z" fill="white"/>
<path d="M2382.1 386.218C2361.75 386.218 2343.19 381.64 2326.4 372.484C2309.61 363.074 2296.52 350.23 2287.11 333.952C2277.7 317.421 2272.99 298.982 2272.99 278.635C2272.99 247.606 2283.29 221.918 2303.89 201.572C2324.75 181.225 2350.82 171.052 2382.1 171.052C2402.7 171.052 2421.27 175.757 2437.8 185.167C2454.58 194.323 2467.68 207.167 2477.09 223.699C2486.76 239.976 2491.59 258.288 2491.59 278.635C2491.59 309.409 2481.16 335.097 2460.31 355.698C2439.45 376.045 2413.38 386.218 2382.1 386.218ZM2327.54 333.571C2342.04 347.814 2360.23 354.935 2382.1 354.935C2404.23 354.935 2422.41 347.814 2436.65 333.571C2451.15 319.074 2458.4 300.762 2458.4 278.635C2458.4 256.508 2451.15 238.323 2436.65 224.08C2422.41 209.583 2404.23 202.335 2382.1 202.335C2360.23 202.335 2342.04 209.583 2327.54 224.08C2313.3 238.323 2306.18 256.508 2306.18 278.635C2306.18 300.762 2313.3 319.074 2327.54 333.571Z" fill="white"/>
<path d="M2722.09 175.63H2748.03V381.64H2720.94L2717.51 350.357C2707.84 361.802 2696.02 370.704 2682.03 377.062C2668.29 383.166 2653.16 386.218 2636.63 386.218C2606.36 386.218 2581.06 376.045 2560.71 355.698C2540.36 335.097 2530.19 309.409 2530.19 278.635C2530.19 247.86 2540.36 222.3 2560.71 201.953C2581.06 181.352 2606.36 171.052 2636.63 171.052C2653.42 171.052 2668.68 174.231 2682.41 180.589C2696.4 186.948 2708.22 195.849 2717.89 207.294L2722.09 175.63ZM2584.74 333.189C2599.24 347.687 2617.43 354.935 2639.3 354.935C2661.17 354.935 2679.23 347.687 2693.47 333.189C2707.72 318.692 2714.84 300.508 2714.84 278.635C2714.84 256.762 2707.72 238.577 2693.47 224.08C2679.23 209.583 2661.17 202.335 2639.3 202.335C2617.43 202.335 2599.24 209.71 2584.74 224.462C2570.5 238.959 2563.38 257.017 2563.38 278.635C2563.38 300.253 2570.5 318.438 2584.74 333.189Z" fill="white"/>
<path d="M2912.92 174.485H2931.23V205.387H2910.25C2891.68 205.387 2877.19 211.109 2866.76 222.554C2856.58 233.745 2851.5 249.514 2851.5 269.86V381.64H2819.07V175.63H2841.96L2847.3 206.913C2862.31 185.294 2884.18 174.485 2912.92 174.485Z" fill="white"/>
<path d="M3131.57 102H3164V381.64H3139.2L3134.62 352.265C3114.28 374.9 3087.95 386.218 3055.65 386.218C3024.63 386.218 2999.06 376.045 2978.97 355.698C2959.13 335.097 2949.22 309.409 2949.22 278.635C2949.22 247.606 2959.13 221.918 2978.97 201.572C2999.06 181.225 3024.63 171.052 3055.65 171.052C3086.17 171.052 3111.48 181.225 3131.57 201.572V102ZM3003.77 333.189C3018.01 347.687 3035.94 354.935 3057.56 354.935C3079.43 354.935 3097.62 347.687 3112.12 333.189C3126.61 318.438 3133.86 300.253 3133.86 278.635C3133.86 256.762 3126.61 238.577 3112.12 224.08C3097.87 209.583 3079.82 202.335 3057.94 202.335C3047.26 202.335 3037.21 204.369 3027.8 208.439C3018.39 212.254 3010.38 217.468 3003.77 224.08C2997.16 230.693 2991.94 238.832 2988.13 248.496C2984.31 257.907 2982.41 267.953 2982.41 278.635C2982.41 300.508 2989.53 318.692 3003.77 333.189Z" fill="white"/>
<defs>
<linearGradient id="paint0_linear_145_7112" x1="593.926" y1="412.944" x2="197.787" y2="-77.3261" gradientUnits="userSpaceOnUse">
<stop stop-color="white"/>
<stop offset="1" stop-color="white" stop-opacity="0"/>
</linearGradient>
<linearGradient id="paint1_linear_145_7112" x1="580.775" y1="524.725" x2="301.642" y2="236.397" gradientUnits="userSpaceOnUse">
<stop stop-color="white"/>
<stop offset="1" stop-color="white" stop-opacity="0"/>
</linearGradient>
<linearGradient id="paint2_linear_145_7112" x1="396.139" y1="503.036" x2="4.88127e-05" y2="12.7657" gradientUnits="userSpaceOnUse">
<stop stop-color="white"/>
<stop offset="1" stop-color="white" stop-opacity="0"/>
</linearGradient>
<linearGradient id="paint3_linear_145_7112" x1="13.1892" y1="-36.6942" x2="292.322" y2="251.635" gradientUnits="userSpaceOnUse">
<stop stop-color="white"/>
<stop offset="1" stop-color="white" stop-opacity="0"/>
</linearGradient>
<linearGradient id="paint4_linear_145_7112" x1="593.926" y1="412.944" x2="197.787" y2="-77.3261" gradientUnits="userSpaceOnUse">
<stop stop-color="white"/>
<stop offset="1" stop-color="white" stop-opacity="0"/>
</linearGradient>
<linearGradient id="paint5_linear_145_7112" x1="580.775" y1="524.725" x2="301.642" y2="236.397" gradientUnits="userSpaceOnUse">
<stop stop-color="white"/>
<stop offset="1" stop-color="white" stop-opacity="0"/>
</linearGradient>
<linearGradient id="paint6_linear_145_7112" x1="396.139" y1="503.036" x2="4.88127e-05" y2="12.7657" gradientUnits="userSpaceOnUse">
<stop stop-color="white"/>
<stop offset="1" stop-color="white" stop-opacity="0"/>
</linearGradient>
<linearGradient id="paint7_linear_145_7112" x1="13.1892" y1="-36.6942" x2="292.322" y2="251.635" gradientUnits="userSpaceOnUse">
<stop stop-color="white"/>
<stop offset="1" stop-color="white" stop-opacity="0"/>
</linearGradient>
</defs>
</svg>
